{
	"asset":{
		"generator":"Khronos glTF Blender I/O v4.0.43",
		"version":"2.0"
	},
	"scene":0,
	"scenes":[
		{
			"name":"Scene",
			"nodes":[
				0,
				1
			]
		}
	],
	"nodes":[
		{
			"mesh":0,
			"name":"Cube",
			"translation":[
				0.00783733744174242,
				0.07874494045972824,
				0
			]
		},
		{
			"mesh":1,
			"name":"Sigil",
			"translation":[
				0.010512824170291424,
				0.1056266501545906,
				0
			]
		}
	],
	"materials":[
		{
			"doubleSided":true,
			"name":"Material",
			"pbrMetallicRoughness":{
				"baseColorFactor":[
					0.7679255604743958,
					0.8000000715255737,
					0.6090651750564575,
					1
				],
				"metallicFactor":0,
				"roughnessFactor":0.5
			}
		},
		{
			"doubleSided":true,
			"name":"Wax",
			"pbrMetallicRoughness":{
				"baseColorFactor":[
					0.41093742847442627,
					0.06867627799510956,
					0.0465971902012825,
					1
				],
				"metallicFactor":0,
				"roughnessFactor":0.1787564754486084
			}
		}
	],
	"meshes":[
		{
			"name":"Cube",
			"primitives":[
				{
					"attributes":{
						"POSITION":0,
						"NORMAL":1,
						"TEXCOORD_0":2
					},
					"indices":3,
					"material":0
				}
			]
		},
		{
			"name":"Cube.001",
			"primitives":[
				{
					"attributes":{
						"POSITION":4,
						"NORMAL":5
					},
					"indices":6,
					"material":1
				}
			]
		}
	],
	"accessors":[
		{
			"bufferView":0,
			"componentType":5126,
			"count":40,
			"max":[
				0.0031188169959932566,
				0.14820963144302368,
				0.23318567872047424
			],
			"min":[
				-0.0051855845376849174,
				-0.14580178260803223,
				-0.23318567872047424
			],
			"type":"VEC3"
		},
		{
			"bufferView":1,
			"componentType":5126,
			"count":40,
			"type":"VEC3"
		},
		{
			"bufferView":2,
			"componentType":5126,
			"count":40,
			"type":"VEC2"
		},
		{
			"bufferView":3,
			"componentType":5123,
			"count":66,
			"type":"SCALAR"
		},
		{
			"bufferView":4,
			"componentType":5126,
			"count":11993,
			"max":[
				0.005837978795170784,
				0.031289514154195786,
				0.03047061339020729
			],
			"min":[
				-0.004755721427500248,
				-0.02991885133087635,
				-0.03075464814901352
			],
			"type":"VEC3"
		},
		{
			"bufferView":5,
			"componentType":5126,
			"count":11993,
			"type":"VEC3"
		},
		{
			"bufferView":6,
			"componentType":5123,
			"count":71946,
			"type":"SCALAR"
		}
	],
	"bufferViews":[
		{
			"buffer":0,
			"byteLength":480,
			"byteOffset":0,
			"target":34962
		},
		{
			"buffer":0,
			"byteLength":480,
			"byteOffset":480,
			"target":34962
		},
		{
			"buffer":0,
			"byteLength":320,
			"byteOffset":960,
			"target":34962
		},
		{
			"buffer":0,
			"byteLength":132,
			"byteOffset":1280,
			"target":34963
		},
		{
			"buffer":0,
			"byteLength":143916,
			"byteOffset":1412,
			"target":34962
		},
		{
			"buffer":0,
			"byteLength":143916,
			"byteOffset":145328,
			"target":34962
		},
		{
			"buffer":0,
			"byteLength":143892,
			"byteOffset":289244,
			"target":34963
		}
	],
	"buffers":[
		{
			"byteLength":433136,
			"uri":"envelope.bin"
		}
	]
}
